<?xml version="1.0" encoding="utf-8"?><!-- Uploaded to: SVG Repo, www.svgrepo.com, Generator: SVG Repo Mixer Tools -->
<svg width="800px" height="800px" viewBox="0 0 24 24" fill="none" xmlns="http://www.w3.org/2000/svg">
<path fill-rule="evenodd" clip-rule="evenodd" d="M5 2C4.44772 2 4 2.44771 4 3V20C4 20.5523 4.44772 21 5 21C5.55228 21 6 20.5523 6 20V14H18C19.1046 14 20 13.1046 20 12V5C20 3.89543 19.1046 3 18 3H6C6 2.44772 5.55228 2 5 2ZM6 5V12H18V5H6Z" fill="#262525"/>
<rect x="6" y="5" width="12" height="1" fill="#FF575B"/>
<rect x="6" y="6" width="12" height="1" fill="#FF8353"/>
<rect x="6" y="7" width="12" height="1" fill="#FABA2C"/>
<rect x="6" y="8" width="12" height="1" fill="#7AC74D"/>
<rect x="6" y="9" width="12" height="1" fill="#00B0FF"/>
<rect x="6" y="10" width="12" height="1" fill="#B99FE4"/>
<rect x="6" y="11" width="12" height="1" fill="#E39BD1"/>
</svg>